<?xml version="1.0" encoding="UTF-8" standalone="no"?>
<!DOCTYPE svg PUBLIC "-//W3C//DTD SVG 1.1//EN" "http://www.w3.org/Graphics/SVG/1.1/DTD/svg11.dtd">

<!-- Created with Vectornator (http://vectornator.io/) -->
<svg height="100%" stroke-miterlimit="10"
  style="fill-rule:nonzero;clip-rule:evenodd;stroke-linecap:round;stroke-linejoin:round;" version="1.1"
  viewBox="0 0 1024 1024" width="100%" xml:space="preserve" xmlns="http://www.w3.org/2000/svg"
  xmlns:vectornator="http://vectornator.io" xmlns:xlink="http://www.w3.org/1999/xlink">
  <metadata>
    <vectornator:setting key="IsTimeLapseWatermarkDisabled" value="false" />
    <vectornator:setting key="UndoHistoryDisabled" value="true" />
    <vectornator:setting key="VNDimensionsVisible" value="true" />
    <vectornator:setting key="VNSnapToGuides" value="true" />
    <vectornator:setting key="WDCMYKEnabledKey" value="false" />
    <vectornator:setting key="WDDisplayWhiteBackground" value="false" />
    <vectornator:setting key="WDDynamicGuides" value="true" />
    <vectornator:setting key="WDGuidesVisible" value="false" />
    <vectornator:setting key="WDIsolateActiveLayer" value="false" />
    <vectornator:setting key="WDOutlineMode" value="false" />
    <vectornator:setting key="WDRulersVisible" value="true" />
    <vectornator:setting key="WDSnapToEdges" value="false" />
    <vectornator:setting key="WDSnapToGrid" value="false" />
    <vectornator:setting key="WDSnapToPoints" value="false" />
    <vectornator:setting key="WDUnits" value="Pixels" />
  </metadata>
  <defs>
    <filter color-interpolation-filters="sRGB" filterUnits="userSpaceOnUse" height="569.469" id="Filter" width="506.57"
      x="249.421" y="268">
      <feDropShadow dx="-2.20392e-05" dy="6" flood-color="#000000" flood-opacity="0.333" in="SourceGraphic"
        result="Shadow" stdDeviation="5" />
    </filter>
    <clipPath id="TextBounds">
      <rect height="3.16173" width="289.954" x="196.019" y="743.719" />
    </clipPath>
    <filter color-interpolation-filters="sRGB" filterUnits="userSpaceOnUse" height="65.9062" id="Filter_2"
      width="156.625" x="259.421" y="755.563">
      <feDropShadow dx="-2.20392e-05" dy="6" flood-color="#000000" flood-opacity="0.333" in="SourceGraphic"
        result="Shadow" stdDeviation="5" />
    </filter>
    <radialGradient cx="32.5" cy="32" gradientTransform="matrix(7.42835 0 0 8.27586 270.579 247.172)"
      gradientUnits="userSpaceOnUse" id="RadialGradient" r="30.276">
      <stop offset="0" stop-color="#afeeff" />
      <stop offset="0.193" stop-color="#bbf1ff" />
      <stop offset="0.703" stop-color="#d7f8ff" />
      <stop offset="1" stop-color="#e1faff" />
    </radialGradient>
    <linearGradient gradientTransform="matrix(7.42835 0 0 8.27586 274.293 247.185)" gradientUnits="userSpaceOnUse"
      id="LinearGradient" x1="32" x2="32" y1="57.998" y2="6">
      <stop offset="0" stop-color="#155cde" />
      <stop offset="0.278" stop-color="#1f7fe5" />
      <stop offset="0.569" stop-color="#279ceb" />
      <stop offset="0.82" stop-color="#2cafef" />
      <stop offset="1" stop-color="#2eb5f0" />
    </linearGradient>
    <clipPath id="TextBounds_2">
      <rect height="297.25" width="244.533" x="401.611" y="338.706" />
    </clipPath>
    <filter color-interpolation-filters="sRGB" filterUnits="userSpaceOnUse" height="210.5" id="Filter_3" width="191"
      x="415.39" y="390.081">
      <feDropShadow dx="-2.20392e-05" dy="6" flood-color="#000000" flood-opacity="0.333" in="SourceGraphic"
        result="Shadow" stdDeviation="5" />
    </filter>
  </defs>
  <g id="Layer-2" vectornator:layerName="Layer 2" />
  <g id="Layer-1" vectornator:layerName="Layer 1">
    <g filter="url(#Filter)" vectornator:shadowAngle="1.5708" vectornator:shadowColor="#000000"
      vectornator:shadowOffset="6" vectornator:shadowOpacity="0.333" vectornator:shadowRadius="10">
      <g fill="#ffffff" filter="url(#Filter_2)" stroke="none" vectornator:shadowAngle="1.5708"
        vectornator:shadowColor="#000000" vectornator:shadowOffset="6" vectornator:shadowOpacity="0.333"
        vectornator:shadowRadius="10">
        <path clip-path="url(#TextBounds)"
          d="M282.421 804.657L293.859 804.657L293.859 768.782L306.89 768.782L306.89 759.563L269.421 759.563L269.421 768.782L282.421 768.782L282.421 804.657Z"
          fill-rule="evenodd" />
        <path clip-path="url(#TextBounds)"
          d="M324.109 805.469C335.265 805.469 339.515 798.938 340.515 794.782L340.609 794.407L330.484 794.438L330.421 794.563C329.921 795.469 328.015 797.594 324.327 797.594C320.077 797.594 317.515 794.719 317.421 789.75L340.827 789.75L340.827 786.563C340.827 775.938 334.171 769.063 323.702 769.063C313.202 769.063 306.546 776.032 306.546 787.25L306.546 787.282C306.546 798.563 313.202 805.469 324.109 805.469ZM323.952 776.938C327.39 776.938 329.827 779.157 330.359 783.313L317.546 783.313C318.077 779.219 320.546 776.938 323.952 776.938Z"
          fill-rule="evenodd" />
        <path clip-path="url(#TextBounds)"
          d="M343.765 804.657L355.265 804.657L360.827 794L361.452 794L367.046 804.657L379.109 804.657L368.577 787.094L379.077 769.875L367.109 769.875L361.984 780.719L361.39 780.719L356.296 769.875L343.702 769.875L354.171 787.563L343.765 804.657Z"
          fill-rule="evenodd" />
        <path clip-path="url(#TextBounds)"
          d="M400.765 804.719C402.859 804.719 404.89 804.532 406.046 804.282L406.046 796.375C405.234 796.469 404.546 796.5 403.265 796.5C400.39 796.5 399.077 795.25 399.077 792.625L399.077 778L406.046 778L406.046 769.875L399.077 769.875L399.077 761.907L387.984 761.907L387.984 769.875L382.671 769.875L382.671 778L387.984 778L387.984 795.125C387.984 801.938 391.609 804.719 400.765 804.719Z"
          fill-rule="evenodd" />
      </g>
      <path
        d="M708.851 420.966L719.994 420.966C736.098 420.966 748.905 404.43 745.414 385.851C742.873 372.32 731.552 363.034 719.14 363.034L649.424 363.034C641.216 363.034 634.568 355.628 634.568 346.483C634.568 337.338 641.216 329.931 649.424 329.931L674.569 329.931C686.975 329.931 698.303 320.646 700.843 307.114C704.335 288.535 691.528 272 675.424 272L523.187 272L512 272L333.72 272C319.42 272 307.72 285.034 307.72 300.966C307.72 316.897 319.42 329.931 333.72 329.931L352.29 329.931C360.499 329.931 367.147 337.338 367.147 346.483C367.147 355.628 360.499 363.034 352.29 363.034L304.86 363.034C292.455 363.034 281.127 372.32 278.586 385.851C275.095 404.43 287.902 420.966 304.006 420.966L404.289 420.966L404.289 512L304.86 512C292.455 512 281.127 521.286 278.586 534.817C275.095 553.396 287.902 569.931 304.006 569.931L322.577 569.931C330.785 569.931 337.434 577.338 337.434 586.483C337.434 595.628 330.785 603.034 322.577 603.034L304.006 603.034C287.902 603.034 275.095 619.57 278.586 638.149C281.127 651.68 292.455 660.966 304.86 660.966L359.719 660.966C367.927 660.966 374.576 668.372 374.576 677.517C374.576 686.662 367.927 694.069 359.719 694.069L334.574 694.069C322.169 694.069 310.84 703.354 308.3 716.886C304.808 735.465 317.615 752 333.72 752L500.813 752L512 752L667.995 752C682.295 752 693.995 738.966 693.995 723.034C693.995 707.103 682.295 694.069 667.995 694.069L656.853 694.069C648.644 694.069 641.996 686.662 641.996 677.517C641.996 668.372 648.644 660.966 656.853 660.966L696.854 660.966C709.26 660.966 720.588 651.68 723.129 638.149C726.62 619.57 713.813 603.034 697.709 603.034L619.711 603.034L619.711 512L711.711 512C724.117 512 735.445 502.714 737.985 489.183C741.477 470.604 728.67 454.069 712.565 454.069L708.851 454.069C700.643 454.069 693.995 446.662 693.995 437.517C693.995 428.372 700.643 420.966 708.851 420.966Z"
        fill="url(#RadialGradient)" fill-rule="evenodd" opacity="1" stroke="none" />
      <path
        d="M593.712 338.261C567.178 328.139 545.725 314.923 529.449 302.766C518.864 294.862 505.144 294.862 494.558 302.766C478.275 314.923 456.83 328.139 430.288 338.261C401.399 349.276 375.318 353.248 355.165 354.407C347.254 354.862 341.141 362.145 341.17 370.967C341.453 459.279 346.34 567.469 430.288 660.986C442.612 674.716 474.569 703.028 494.67 720.514C504.861 729.378 519.131 729.378 529.323 720.514C549.424 703.028 581.381 674.716 593.704 660.986C677.652 567.469 682.54 459.279 682.83 370.959C682.859 362.137 676.739 354.854 668.835 354.399C648.682 353.24 622.601 349.276 593.712 338.261Z"
        fill="url(#LinearGradient)" fill-rule="evenodd" opacity="1" stroke="none" />
      <path clip-path="url(#TextBounds_2)"
        d="M556.265 560.206L547.515 537.206L473.015 537.206L464.265 560.706C460.848 569.872 457.932 576.06 455.515 579.268C453.098 582.477 449.14 584.081 443.64 584.081C438.973 584.081 434.848 582.372 431.265 578.956C427.682 575.539 425.89 571.664 425.89 567.331C425.89 564.831 426.307 562.247 427.14 559.581C427.973 556.914 429.348 553.206 431.265 548.456L478.14 429.456C479.473 426.039 481.078 421.935 482.953 417.143C484.828 412.352 486.828 408.372 488.953 405.206C491.078 402.039 493.869 399.477 497.328 397.518C500.786 395.56 505.057 394.581 510.14 394.581C515.307 394.581 519.619 395.56 523.078 397.518C526.536 399.477 529.328 401.997 531.453 405.081C533.578 408.164 535.369 411.477 536.828 415.018C538.286 418.56 540.14 423.289 542.39 429.206L590.265 547.456C594.015 556.456 595.89 562.997 595.89 567.081C595.89 571.331 594.119 575.227 590.578 578.768C587.036 582.31 582.765 584.081 577.765 584.081C574.848 584.081 572.348 583.56 570.265 582.518C568.182 581.477 566.432 580.06 565.015 578.268C563.598 576.477 562.078 573.727 560.453 570.018C558.828 566.31 557.432 563.039 556.265 560.206ZM482.765 509.331L537.515 509.331L509.89 433.706L482.765 509.331Z"
        fill="#ffffff" fill-rule="evenodd" filter="url(#Filter_3)" stroke="#3f3f3f" stroke-linecap="round"
        stroke-linejoin="round" stroke-width="1" vectornator:shadowAngle="1.5708" vectornator:shadowColor="#000000"
        vectornator:shadowOffset="6" vectornator:shadowOpacity="0.333" vectornator:shadowRadius="10" />
    </g>
  </g>
</svg>